<svg width="338" height="87" viewBox="0 0 338 87" fill="none" xmlns="http://www.w3.org/2000/svg">
<path d="M0.488525 70.2745C1.11978 68.3751 1.8412 66.6115 2.65281 64.9835C3.5546 63.3555 4.77201 61.8632 6.30505 60.5066C7.83808 59.1499 9.82201 57.9289 12.2568 56.8436C14.7818 55.7583 18.0283 54.8086 21.9961 53.9947L29.7064 52.3667C34.1252 45.7643 39.1752 39.3881 44.8564 33.2379C50.5377 26.9973 56.5796 21.4351 62.9823 16.5511C69.4752 11.6672 76.1935 7.73291 83.1372 4.74828C90.1712 1.76364 97.2502 0.180884 104.374 0C110.506 0 115.151 1.08532 118.307 3.25596C121.553 5.33615 123.537 8.45645 124.259 12.6168C124.71 15.4206 124.078 19.581 122.365 25.098C120.742 30.5246 118.532 36.6748 115.737 43.5485C112.941 50.3317 109.83 57.4767 106.403 64.9835C103.067 72.4903 99.8654 79.6353 96.7993 86.4186C94.0939 86.0568 91.614 85.5142 89.3596 84.7906C87.1953 84.1575 85.4368 83.2531 84.0841 82.0773C82.7314 80.9015 81.9198 79.4545 81.6493 77.736C81.3788 75.9272 81.8747 73.7565 83.1372 71.2241C84.7605 68.3299 86.4288 65.3001 88.1422 62.1346C89.9457 58.8786 91.7493 55.6226 93.5529 52.3667C84.8055 52.8189 76.3288 53.7233 68.1225 55.08C60.0064 56.4366 52.0256 58.0194 44.1801 59.8283C41.114 65.074 38.4537 70.0483 36.1993 74.7514C34.035 79.4545 32.3216 83.5244 31.0591 86.9612C26.7305 87.1421 23.5292 86.6899 21.4551 85.6046C19.3809 84.5193 18.0283 83.1174 17.397 81.399C16.7658 79.771 16.6305 78.0526 16.9912 76.2437C17.4421 74.4348 17.9381 72.9425 18.4792 71.7668C18.9301 70.7719 19.426 69.7318 19.9671 68.6465C20.5082 67.4707 21.0943 66.3402 21.7256 65.2549C18.0283 66.2497 14.4211 67.1542 10.9042 67.9681C7.38719 68.7821 3.91531 69.5509 0.488525 70.2745ZM106.133 5.83359C101.263 5.74315 96.3484 6.91891 91.3886 9.36088C86.4288 11.7124 81.6042 14.8779 76.9149 18.8574C72.2256 22.8369 67.6716 27.4495 63.2529 32.6953C58.9243 37.8505 54.9113 43.1867 51.214 48.7037C54.6408 48.2515 58.0676 47.8445 61.4944 47.4827C65.0113 47.121 68.6185 46.8496 72.3158 46.6687C76.1033 46.3974 80.0261 46.2165 84.0841 46.1261C88.1422 45.9452 92.4707 45.8548 97.0698 45.8548C99.8654 40.6995 102.39 35.7251 104.645 30.9316C106.899 26.1381 108.568 21.9325 109.65 18.3148C110.822 14.6066 111.183 11.622 110.732 9.36088C110.281 7.0998 108.748 5.92404 106.133 5.83359Z" fill="white"/>
<path d="M163.83 37.5792C163.92 38.3027 163.604 39.9307 162.883 42.4631C162.162 44.9051 161.17 47.8445 159.907 51.2814L167.888 40.8352C167.978 40.5638 168.339 40.0212 168.97 39.2072C169.691 38.3027 170.548 37.3983 171.54 36.4939C172.622 35.499 173.795 34.6398 175.057 33.9162C176.41 33.1927 177.762 32.8309 179.115 32.8309C180.648 32.9214 181.956 33.3736 183.038 34.1876C184.21 34.9111 184.841 36.0417 184.932 37.5792C185.022 38.8454 184.841 40.2925 184.391 41.9205C183.94 43.458 183.218 45.4025 182.226 47.7541C181.234 50.1056 179.927 52.9093 178.304 56.1653C176.77 59.4213 175.012 63.3103 173.028 67.8325C171.766 70.9076 171.585 72.3999 172.487 72.3094C173.389 72.1285 174.967 71.0432 177.221 69.0535C179.476 66.9733 182.181 64.26 185.337 60.9136C188.494 57.5672 191.695 54.1755 194.941 50.7387C194.941 50.8291 195.032 51.1005 195.212 51.5527C195.483 51.9145 195.663 52.4119 195.753 53.045C195.843 53.6781 195.753 54.4469 195.483 55.3513C195.302 56.1653 194.716 57.0697 193.724 58.0646C191.109 60.6875 188.809 63.039 186.825 65.1192C184.932 67.1089 183.083 68.9178 181.279 70.5458C179.566 72.1738 177.808 73.6661 176.004 75.0227C174.2 76.3794 172.171 77.7812 169.917 79.2283C168.654 80.0423 167.257 80.5398 165.724 80.7207C164.191 80.8111 162.793 80.6302 161.53 80.178C160.268 79.7258 159.231 79.0475 158.419 78.143C157.698 77.2386 157.472 76.108 157.743 74.7514C158.645 71.0432 159.952 67.1994 161.666 63.2199C163.469 59.2404 165.588 54.7634 168.023 49.789C168.474 48.6133 168.609 48.0254 168.429 48.0254C168.249 48.0254 167.933 48.2967 167.482 48.8394C167.031 49.382 166.49 50.0604 165.859 50.8744C165.228 51.6884 164.732 52.3667 164.371 52.9093C163.108 54.6278 161.395 56.7532 159.231 59.2856C157.157 61.818 155.353 64.1243 153.82 66.2045L152.062 70.1388C151.07 72.5808 150.123 74.5253 149.221 75.9724C148.319 77.329 147.417 78.3691 146.516 79.0927C145.614 79.8162 144.667 80.2684 143.675 80.4493C142.683 80.6302 141.601 80.7207 140.428 80.7207C136.641 80.5398 135.108 78.5952 135.829 74.8871C136.551 71.1789 137.904 67.335 139.887 63.3555C141.962 59.2856 144.216 54.7634 146.651 49.789C147.102 48.6133 147.192 48.0706 146.921 48.1611C146.741 48.1611 146.38 48.4776 145.839 49.1107C145.298 49.6534 144.667 50.3317 143.945 51.1457C143.314 51.9597 142.863 52.638 142.593 53.1807C141.781 54.266 140.834 55.4417 139.752 56.708C138.76 57.9742 137.678 59.2856 136.506 60.6422C135.424 61.9989 134.341 63.3555 133.259 64.7122C132.177 65.9784 131.23 67.1089 130.419 68.1038L129.607 70.1388C128.615 72.5808 127.668 74.5253 126.766 75.9724C125.865 77.329 124.963 78.3691 124.061 79.0927C123.159 79.8162 122.167 80.2684 121.085 80.4493C120.093 80.6302 119.011 80.7207 117.839 80.7207C116.306 80.6302 115.133 80.0875 114.322 79.0927C113.51 78.0978 113.465 76.6959 114.187 74.8871C115.088 72.2642 116.17 69.37 117.433 66.2045C118.786 62.9485 120.228 59.6021 121.762 56.1653C123.295 52.7285 124.918 49.2916 126.631 45.8548C128.435 42.3275 130.283 39.0263 132.177 35.9512C132.899 34.685 133.981 33.8258 135.424 33.3736C136.866 32.8309 138.264 32.6048 139.617 32.6953C141.06 32.7857 142.277 33.057 143.269 33.5092C144.261 33.871 144.667 34.3232 144.487 34.8659L136.37 53.9947L146.38 40.8352C146.651 40.5638 147.102 40.0212 147.733 39.2072C148.454 38.3027 149.311 37.3983 150.303 36.4939C151.295 35.499 152.422 34.6398 153.685 33.9162C155.037 33.1927 156.39 32.8309 157.743 32.8309C159.366 32.9214 160.719 33.3736 161.801 34.1876C162.883 34.9111 163.559 36.0417 163.83 37.5792Z" fill="white"/>
<path d="M198.848 80.992C194.52 80.992 191.409 79.8162 189.515 77.4647C187.621 75.0227 186.719 72.0381 186.81 68.5108C186.99 64.8931 188.072 61.004 190.056 56.8436C192.04 52.6832 194.655 48.8394 197.902 45.3121C201.238 41.6944 205.116 38.7097 209.535 36.3582C214.044 33.9162 218.913 32.6953 224.143 32.6953C228.202 32.6953 231.087 33.7354 232.801 35.8155C234.514 37.8053 235.326 40.3829 235.235 43.5485C235.235 46.6235 234.424 50.0604 232.801 53.859C231.177 57.5672 229.013 61.1849 226.308 64.7122C227.841 64.6217 229.464 64.0339 231.177 62.9485C232.981 61.7728 234.694 60.4614 236.318 59.0143C238.031 57.4767 239.609 55.9392 241.052 54.4017C242.495 52.8641 243.667 51.6431 244.569 50.7387C244.569 50.8291 244.659 51.1005 244.839 51.5527C245.02 51.9145 245.11 52.4119 245.11 53.045C245.2 53.6781 245.11 54.4469 244.839 55.3513C244.659 56.1653 244.118 57.0697 243.216 58.0646L240.24 61.3206C238.707 62.8581 237.174 64.2148 235.641 65.3905C234.108 66.4758 232.756 67.2898 231.583 67.8325C228.066 69.6413 224.594 70.5458 221.168 70.5458C218.011 73.6209 214.494 76.1533 210.617 78.143C206.829 80.0423 202.906 80.992 198.848 80.992ZM201.96 75.5654C203.493 75.4749 205.161 74.6157 206.964 72.9878C208.858 71.3598 210.707 69.2344 212.51 66.6115C211.068 64.8931 210.211 62.8129 209.94 60.3709C209.76 59.0143 210.031 57.8385 210.752 56.8436C211.473 55.7583 212.33 54.9443 213.322 54.4017C214.404 53.7685 215.486 53.452 216.568 53.452C217.741 53.452 218.733 53.8138 219.544 54.5373C220.627 52.1858 221.573 49.8795 222.385 47.6184C223.287 45.3573 223.873 43.3676 224.143 41.6491C224.504 39.9307 224.594 38.5741 224.414 37.5792C224.234 36.4939 223.693 35.9512 222.791 35.9512C220.807 35.9512 218.643 36.9461 216.298 38.9358C214.044 40.8352 211.834 43.2771 209.67 46.2617C207.506 49.1559 205.522 52.3215 203.718 55.7583C202.005 59.1951 200.697 62.4059 199.795 65.3905C198.893 68.2847 198.533 70.7267 198.713 72.7164C198.984 74.6157 200.066 75.5654 201.96 75.5654Z" fill="white"/>
<path d="M254.736 53.3163L265.152 40.9708C265.332 40.6995 265.828 40.1116 266.64 39.2072C267.542 38.3027 268.579 37.3983 269.751 36.4939C271.013 35.499 272.366 34.6398 273.809 33.9162C275.342 33.1023 276.785 32.7405 278.138 32.8309C280.031 32.9214 281.294 33.3736 281.925 34.1876C282.556 34.9111 282.917 35.7251 283.007 36.6295C283.097 37.7149 282.737 39.2524 281.925 41.2421C281.204 43.1415 280.347 45.2217 279.355 47.4827C278.363 49.7438 277.326 51.9597 276.244 54.1303C275.252 56.301 274.53 58.1098 274.08 59.5569C272.817 62.632 272.547 64.4409 273.268 64.9835C273.989 65.5262 275.297 65.2548 277.191 64.1695C279.084 62.9938 281.384 61.2301 284.089 58.8786C286.885 56.4366 289.68 53.7233 292.476 50.7387C292.476 50.8291 292.566 51.1005 292.747 51.5527C293.017 51.9145 293.152 52.4119 293.152 53.045C293.243 53.6781 293.152 54.4469 292.882 55.3513C292.701 56.1653 292.16 57.0697 291.259 58.0646C287.561 61.8632 283.819 64.9835 280.031 67.4255C276.334 69.8675 272.186 71.0884 267.587 71.0884C265.422 71.0884 263.529 70.591 261.905 69.5961C260.282 68.5108 259.516 66.7924 259.606 64.4409C259.606 63.8078 259.831 62.9033 260.282 61.7276C260.733 60.5518 261.274 59.2856 261.905 57.9289C262.537 56.4818 263.168 55.0348 263.799 53.5877C264.521 52.1406 265.107 50.8744 265.558 49.789C266.369 48.1611 266.595 47.3018 266.234 47.2114C265.873 47.121 265.287 47.4375 264.476 48.1611C263.664 48.7942 262.762 49.6082 261.77 50.603C260.868 51.5979 260.237 52.3667 259.876 52.9093C259.245 53.8138 258.479 54.8539 257.577 56.0296C256.675 57.115 255.728 58.2907 254.736 59.5569C253.744 60.7327 252.752 61.9084 251.76 63.0842C250.859 64.26 250.002 65.3905 249.19 66.4758L247.702 70.1388C246.71 72.5808 245.763 74.5253 244.862 75.9724C243.96 77.329 243.058 78.3691 242.156 79.0927C241.255 79.8162 240.263 80.2684 239.18 80.4493C238.188 80.6302 237.106 80.7207 235.934 80.7207C234.401 80.6302 233.229 80.0875 232.417 79.0927C231.605 78.0978 231.56 76.6959 232.282 74.8871C233.184 72.2642 234.266 69.37 235.528 66.2045C236.881 62.9485 238.324 59.6021 239.857 56.1653C241.39 52.7285 243.013 49.2916 244.726 45.8548C246.53 42.3275 248.379 39.0263 250.272 35.9512C250.994 34.685 252.076 33.8258 253.519 33.3736C254.962 32.8309 256.359 32.6048 257.712 32.6953C259.155 32.7857 260.372 33.057 261.364 33.5092C262.356 33.871 262.762 34.3232 262.582 34.8659L254.736 53.3163Z" fill="white"/>
<path d="M306.884 79.6353C305.531 80.2684 303.728 80.7207 301.473 80.992C299.309 81.3538 297.1 81.3085 294.845 80.8563C292.591 80.4945 290.472 79.6353 288.488 78.2787C286.594 76.8316 285.331 74.661 284.7 71.7668C284.159 69.2344 284.249 66.4306 284.971 63.3555C285.782 60.2805 287.045 57.2506 288.758 54.266C290.472 51.1909 292.591 48.2967 295.116 45.5834C297.731 42.7797 300.617 40.3829 303.773 38.3932C306.929 36.313 310.266 34.7755 313.783 33.7806C317.39 32.7857 321.087 32.5144 324.875 32.9666C326.769 33.2379 328.257 33.6901 329.339 34.3232C330.421 34.9563 331.232 35.6347 331.773 36.3582C332.315 37.0818 332.675 37.8505 332.856 38.6645C333.036 39.3881 333.126 40.0212 333.126 40.5638C333.126 43.458 331.909 46.307 329.474 49.1107C327.129 51.824 324.198 54.2208 320.681 56.301C317.255 58.2907 313.602 59.783 309.725 60.7779C305.847 61.6823 302.42 61.7276 299.444 60.9136C298.002 64.8026 297.415 67.9229 297.686 70.2745C297.956 72.5355 298.813 74.0279 300.256 74.7514C301.699 75.3845 303.502 75.4749 305.667 75.0227C307.831 74.4801 310.266 73.44 312.971 71.9024C315.677 70.2745 318.382 68.3751 321.087 66.2045C323.702 64.2148 326.273 61.818 328.798 59.0143C331.413 56.2105 334.028 53.452 336.643 50.7387C336.643 50.8291 336.733 51.1005 336.914 51.5527C337.184 51.9145 337.365 52.4119 337.455 53.045C337.545 53.6781 337.455 54.4469 337.184 55.3513C337.004 56.1653 336.418 57.0697 335.426 58.0646C330.376 63.4008 325.641 67.7873 321.223 71.2241C316.894 74.5705 312.115 77.3743 306.884 79.6353ZM319.735 36.4939C318.111 36.9461 316.398 37.8957 314.594 39.3428C312.881 40.6995 311.168 42.3727 309.454 44.3624C307.741 46.2618 306.118 48.3872 304.585 50.7387C303.142 53.0902 301.879 55.4417 300.797 57.7933C303.232 57.0697 305.712 56.0296 308.237 54.673C310.852 53.2259 313.242 51.6431 315.406 49.9247C317.57 48.2063 319.329 46.4426 320.681 44.6338C322.124 42.8249 322.891 41.1065 322.981 39.4785C322.981 39.1167 322.981 38.7097 322.981 38.2575C323.071 37.8053 322.981 37.3983 322.71 37.0365C322.53 36.6748 322.215 36.4487 321.764 36.3582C321.313 36.1773 320.636 36.2225 319.735 36.4939Z" fill="white"/>
</svg>
